# xmcd
#
# Track frame offsets: 
#        150
#        19058
#        31777
#
# Disc length: 673 seconds
#
# Revision: 0
# Processed by: cddbd v1.5.2PL0 Copyright (c) Steve Scherf et al.
# Submitted via: ExactAudioCopy v1.0b1
#
DISCID=16029f03
DTITLE=雨先案内人 - おひさま／イエーイ！！
DYEAR=2012
DGENRE=J-Pop
TTITLE0=おひさま
TTITLE1=イエーイ！！
TTITLE2=おひさま（Instrumental）
EXTD=
EXTT0=
EXTT1=
EXTT2=
PLAYORDER=
